<?xml version="1.0" encoding="UTF-8"?>
<svg id="Layer_2" data-name="Layer 2" xmlns="http://www.w3.org/2000/svg" xmlns:xlink="http://www.w3.org/1999/xlink" viewBox="0 0 1627.89 321.33">
  <defs>
    <style>
      .cls-1 {
        fill: url(#linear-gradient);
      }

      .cls-1, .cls-2, .cls-3, .cls-4, .cls-5, .cls-6 {
        stroke-width: 0px;
      }

      .cls-2 {
        fill: url(#linear-gradient-4);
      }

      .cls-3 {
        fill: url(#linear-gradient-2);
      }

      .cls-4 {
        fill: url(#linear-gradient-3);
      }

      .cls-5 {
        fill: url(#linear-gradient-5);
      }

      .cls-6 {
        fill: #150c23;
      }
    </style>
    <linearGradient id="linear-gradient" x1="1948.32" y1="-637.35" x2="1952.26" y2="-637.35" gradientTransform="translate(-33030 17187.17) rotate(-45.19) scale(18.11 -18.11)" gradientUnits="userSpaceOnUse">
      <stop offset="0" stop-color="#00d785"/>
      <stop offset="0" stop-color="#00d785"/>
      <stop offset=".09" stop-color="#03d490"/>
      <stop offset="1" stop-color="#03d490"/>
    </linearGradient>
    <linearGradient id="linear-gradient-2" x1="1960.26" y1="-637.4" x2="1964.2" y2="-637.4" gradientTransform="translate(-32990.93 17141.43) rotate(-45.19) scale(18.12 -18.12)" gradientUnits="userSpaceOnUse">
      <stop offset="0" stop-color="#1bb9e9"/>
      <stop offset="1" stop-color="#21b2ff"/>
      <stop offset="1" stop-color="#21b2ff"/>
    </linearGradient>
    <linearGradient id="linear-gradient-3" x1="1958.57" y1="-687.39" x2="1962.52" y2="-687.39" gradientTransform="translate(154002.98 55624.13) rotate(-179.5) scale(78.72 -78.72)" gradientUnits="userSpaceOnUse">
      <stop offset="0" stop-color="#561cff"/>
      <stop offset="1" stop-color="#078795"/>
      <stop offset="1" stop-color="#078795"/>
    </linearGradient>
    <linearGradient id="linear-gradient-4" x1="1952.69" y1="-664.24" x2="1956.64" y2="-664.24" gradientTransform="translate(-102662.74 51087.72) rotate(-45.19) scale(55.56 -55.56)" gradientUnits="userSpaceOnUse">
      <stop offset="0" stop-color="#d882f0"/>
      <stop offset="1" stop-color="#f39fea"/>
      <stop offset="1" stop-color="#f39fea"/>
    </linearGradient>
    <linearGradient id="linear-gradient-5" x1="1952.68" y1="-668.13" x2="1956.63" y2="-668.13" gradientTransform="translate(-102604.29 51136.51) rotate(-45.19) scale(55.56 -55.56)" gradientUnits="userSpaceOnUse">
      <stop offset="0" stop-color="#a044fc"/>
      <stop offset="1" stop-color="#a044fc"/>
      <stop offset="1" stop-color="#a044fc"/>
    </linearGradient>
  </defs>
  <g id="Layer_1-2" data-name="Layer 1">
    <g>
      <g>
        <path class="cls-6" d="m444.61,41.98h-34.33v164.56c0,40.21,32.6,72.81,72.81,72.81h85.14v-32.48h-82.02c-22.97,0-41.6-18.62-41.6-41.6V41.98Z"/>
        <path class="cls-6" d="m1179.29,89.99c-53.89,0-97.08,42.45-97.08,97.08s43.19,97.08,97.08,97.08,97.45-42.45,97.45-97.08-43.56-97.08-97.45-97.08Zm0,162.78c-36.54,0-64.97-28.42-64.97-65.7s28.42-65.71,64.97-65.71,65.34,28.42,65.34,65.71-28.42,65.7-65.34,65.7Z"/>
        <path class="cls-6" d="m1309.1,163.29v116.06h32.32v-116.06c0-21.35,17.37-38.72,38.72-38.72h40.76v-32.32h-40.76c-39.17,0-71.04,31.87-71.04,71.04Z"/>
        <path class="cls-6" d="m717.3,202.91c0,27.47-22.34,49.81-49.81,49.81s-49.81-22.34-49.81-49.81v-108.12h-32.07v108.12c0,45.15,36.73,81.87,81.87,81.87s81.87-36.73,81.87-81.87v-108.12h-32.07v108.12Z"/>
        <path class="cls-6" d="m976.61,91.65c-24.04,0-45.46,11.34-59.25,28.93-13.79-17.59-35.22-28.93-59.25-28.93-41.51,0-75.29,33.77-75.29,75.29v112.41h32.07v-112.41c0-23.83,19.39-43.22,43.22-43.22s43.22,19.39,43.22,43.22v112.41h32.07v-112.41c0-23.83,19.39-43.22,43.22-43.22s43.22,19.39,43.22,43.22v112.41h32.07v-112.41c0-41.51-33.77-75.29-75.29-75.29Z"/>
        <path class="cls-6" d="m1530.44,89.99c-53.89,0-97.08,42.45-97.08,97.08s43.19,97.08,97.08,97.08c15.41,0,29.97-3.48,42.92-9.72v-37.26c-11.37,9.78-26.26,15.6-42.92,15.6-36.54,0-64.97-28.42-64.97-65.7s28.42-65.71,64.97-65.71,65.34,28.42,65.34,65.71v92.28h32.11v-92.28c0-54.63-43.56-97.08-97.45-97.08Z"/>
      </g>
      <g>
        <path class="cls-1" d="m63.24,258.1c29.13,29.13,63.4,48.54,97.43,57.5-48.35,12.76-96.14,4.4-127.74-27.19C1.35,256.82-7.02,209.02,5.73,160.68c8.97,34.02,28.39,68.29,57.51,97.42Z"/>
        <path class="cls-3" d="m258.1,63.24c-29.12-29.13-63.4-48.54-97.43-57.5,48.35-12.78,96.15-4.41,127.75,27.18,31.6,31.6,39.97,79.4,27.19,127.76-8.96-34.03-28.38-68.3-57.51-97.44Z"/>
        <path class="cls-4" d="m258.1,258.1c-29.13,29.13-63.4,48.54-97.43,57.5-34.03-8.96-68.3-28.38-97.43-57.5-29.13-29.13-48.54-63.4-57.51-97.42,8.96-34.03,28.38-68.3,57.51-97.44,29.13-29.13,63.4-48.54,97.43-57.5,34.03,8.96,68.3,28.38,97.43,57.5,29.13,29.13,48.55,63.41,57.51,97.44-8.97,34.02-28.39,68.29-57.51,97.42Z"/>
        <path class="cls-2" d="m160.67,5.74c-34.03,8.96-68.3,28.38-97.43,57.5-29.13,29.13-48.55,63.41-57.51,97.44C-7.04,112.32,1.33,64.52,32.92,32.92,64.52,1.33,112.32-7.05,160.67,5.74Z"/>
        <path class="cls-5" d="m288.41,288.41c-31.6,31.6-79.39,39.96-127.74,27.19,34.03-8.96,68.3-28.38,97.43-57.5,29.13-29.13,48.54-63.4,57.51-97.42,12.76,48.34,4.38,96.14-27.2,127.73Z"/>
      </g>
    </g>
  </g>
</svg>